HIERARCHY
ROOT Hips
{
	OFFSET 0.000000 0.000000 0.000000 
	CHANNELS 6 Xposition Yposition Zposition Yrotation Zrotation Xrotation 
	JOINT Lumbar
	{
		OFFSET 0.000000 0.000000 0.000000 
		CHANNELS 3 Zrotation Xrotation Yrotation
		JOINT Neck
		{
			OFFSET 0.000000 0.445665 0.000000 
			CHANNELS 3 Zrotation Xrotation Yrotation
			End Site
			{
				OFFSET 0.000000 0.227535 0.000000 
			}
		}
		JOINT RightShoulder
		{
			OFFSET 0.019635 0.377685 0.194865 
			CHANNELS 3 Zrotation Xrotation Yrotation
			JOINT RightElbow
			{
				OFFSET 0.000000 -0.243375 0.000000 
				CHANNELS 2 Zrotation Yrotation
				JOINT RightWrist
				{
					OFFSET 0.000000 -0.264825 0.000000 
					CHANNELS 2 Zrotation Xrotation
					End Site
					{
						OFFSET 0.006600 -0.176220 0.000990 
					}
				}
			}
		}
		JOINT LeftShoulder
		{
			OFFSET 0.019635 0.377685 -0.194865 
			CHANNELS 3 Zrotation Xrotation Yrotation
			JOINT LeftElbow
			{
				OFFSET 0.000000 -0.243375 0.000000 
				CHANNELS 2 Zrotation Yrotation
				JOINT LeftWrist
				{
					OFFSET 0.000000 -0.264825 0.000000 
					CHANNELS 2 Zrotation Xrotation
					End Site
					{
						OFFSET 0.006600 -0.176220 -0.000990 
					}
				}
			}
		}
	}
	JOINT RightHip
	{
		OFFSET 0.052140 -0.069960 0.075570 
		CHANNELS 3 Zrotation Xrotation Yrotation
		JOINT RightKnee
		{
			OFFSET 0.000000 -0.402270 0.000000 
			CHANNELS 1 Zrotation
			JOINT RightAnkle
			{
				OFFSET 0.000000 -0.404085 0.000000 
				CHANNELS 3 Zrotation Xrotation Yrotation
				End Site
				{
					OFFSET 0.204105 -0.089430 0.008415 
				}
			}
		}
	}
	JOINT LeftHip
	{
		OFFSET 0.052140 -0.069960 -0.075570 
		CHANNELS 3 Zrotation Xrotation Yrotation
		JOINT LeftKnee
		{
			OFFSET 0.000000 -0.402270 0.000000 
			CHANNELS 1 Zrotation
			JOINT LeftAnkle
			{
				OFFSET 0.000000 -0.404085 0.000000 
				CHANNELS 3 Zrotation Xrotation Yrotation
				End Site
				{
					OFFSET 0.204105 -0.089430 -0.008415 
				}
			}
		}
	}
}
MOTION
Frames: 32
Frame Time: 0.02
0 0.95578 -0 183.55798 0 -2.7261 2.3801 2.00228 -3.23785 -26.13946 3.22812 2.94132 -22.75274 -71.58634 -80.98822 23.14945 73.39133 -16.26193 -1.09395 -10.1149 72.71434 65.69673 23.25074 -69.62015 -30.40126 1.38055 -3.80063 0.25355 5.34593 -6.49149 -2.00666 -2.29861 -6.27542 -1.68062 6.09428 0.8374 -7.24819 4.23244 1.62049 0.31861
-9e-05 0.95577 3e-05 183.5535 0 -2.72398 2.37801 2.0032 -3.2468 -26.17713 3.23011 2.93093 -22.61192 -71.57061 -80.94537 23.16492 73.47877 -16.23539 -1.08572 -9.99866 72.66714 65.65488 23.2391 -69.66398 -30.39554 1.37141 -3.80638 0.24957 5.33916 -6.48992 -2.00666 -2.38721 -6.26952 -1.68946 6.09193 0.85891 -7.24429 4.24088 1.61612 0.30682
-0.00019 0.95575 6e-05 183.549 0 -2.72188 2.37586 2.0041 -3.25571 -26.21457 3.23208 2.9206 -22.472 -71.55488 -80.90285 23.18019 73.56541 -16.20878 -1.07755 -9.88322 72.62013 65.61305 23.22739 -69.70725 -30.3897 1.36241 -3.81209 0.24563 5.33271 -6.48839 -2.00666 -2.47515 -6.26387 -1.69827 6.08959 0.88018 -7.2404 4.2494 1.61175 0.29514
-0.00028 0.95574 9e-05 183.54447 0 -2.71979 2.37344 2.00494 -3.26453 -26.2511 3.23407 2.91041 -22.3349 -71.53897 -80.8612 23.19478 73.64947 -16.18183 -1.06959 -9.76999 72.57348 65.57085 23.21494 -69.74844 -30.3833 1.35393 -3.81763 0.24179 5.3274 -6.4871 -2.00658 -2.56125 -6.25912 -1.70704 6.08723 0.90043 -7.23653 4.25864 1.60727 0.28362
-0.00038 0.95572 0.00012 183.54019 0 -2.71758 2.37246 2.00608 -3.27381 -26.29205 3.23606 2.89946 -22.18354 -71.52397 -80.81492 23.21293 73.74686 -16.15686 -1.06056 -9.64522 72.52497 65.53056 23.206 -69.80029 -30.37981 1.34278 -3.82401 0.23743 5.31597 -6.48467 -2.00685 -2.65701 -6.24959 -1.71601 6.08497 0.9258 -7.23256 4.26444 1.60328 0.27109
-0.00047 0.95571 0.00015 183.53533 0 -2.71565 2.36844 2.00659 -3.2821 -26.32386 3.238 2.89013 -22.06203 -71.50707 -80.77851 23.22358 73.81618 -16.12761 -1.05377 -9.54485 72.48042 65.48632 23.18991 -69.82982 -30.3702 1.33724 -3.82867 0.23416 5.31754 -6.48454 -2.00641 -2.73229 -6.25017 -1.72458 6.08251 0.94051 -7.22879 4.27724 1.59833 0.26079
-0.00053 0.9557 0.00017 183.52914 0 -2.71437 2.35531 2.00541 -3.28798 -26.32818 3.24005 2.88523 -22.02643 -71.48446 -80.76904 23.21245 73.80533 -16.08653 -1.05362 -9.5126 72.44632 65.42899 23.1508 -69.7939 -30.34257 1.34802 -3.82796 0.23386 5.35614 -6.49193 -2.00363 -2.75058 -6.27968 -1.73177 6.07924 0.9233 -7.22579 4.3128 1.58982 0.25592
-0.00059 0.95569 0.00018 183.52228 0 -2.71339 2.33921 2.00359 -3.2928 -26.32366 3.242 2.88197 -22.02031 -71.46004 -80.76956 23.19392 73.7666 -16.04113 -1.05564 -9.50473 72.41627 65.36795 23.10499 -69.73608 -30.30891 1.36431 -3.82563 0.23466 5.4077 -6.50144 -2.00019 -2.74828 -6.31924 -1.73862 6.07582 0.89573 -7.22295 4.35489 1.58048 0.25343
-0.00065 0.95568 0.00019 183.51555 0 -2.71234 2.32491 2.00207 -3.29788 -26.32469 3.24381 2.87799 -21.99833 -71.43668 -80.76571 23.17946 73.74237 -15.99762 -1.05634 -9.48529 72.38467 65.31006 23.06441 -69.69075 -30.2787 1.37754 -3.82448 0.23495 5.45263 -6.50917 -1.99732 -2.75569 -6.35358 -1.74582 6.07263 0.87455 -7.21985 4.39172 1.57208 0.2503
-0.00071 0.95567 0.00021 183.50961 0 -2.71098 2.30872 2.00052 -3.30388 -26.31936 3.24636 2.87389 -21.98657 -71.41215 -80.76124 23.16204 73.71049 -15.9543 -1.05843 -9.46826 72.35188 65.24632 23.01481 -69.63484 -30.24554 1.39314 -3.82151 0.23525 5.50066 -6.52021 -1.99335 -2.76161 -6.39068 -1.75219 6.06876 0.84645 -7.21747 4.43798 1.56131 0.2453
-0.00078 0.95567 0.00022 183.50181 0 -2.71035 2.29575 1.99888 -3.30773 -26.32505 3.2474 2.87046 -21.96073 -71.38983 -80.76031 23.14899 73.6878 -15.90973 -1.05819 -9.45159 72.32249 65.19349 22.98214 -69.59562 -30.21703 1.4051 -3.82186 0.23582 5.54534 -6.52502 -1.99147 -2.76573 -6.42439 -1.76019 6.06627 0.83009 -7.2137 4.46644 1.55527 0.24479
-0.00088 0.95567 0.00022 183.48944 0 -2.71156 2.29233 1.99712 -3.30599 -26.36417 3.24366 2.86814 -21.8869 -71.37234 -80.76787 23.14998 73.69847 -15.86112 -1.05039 -9.43339 72.30187 65.17483 23.00025 -69.60915 -30.20338 1.40579 -3.83262 0.23676 5.5772 -6.51067 -1.99604 -2.77015 -6.44664 -1.77291 6.06765 0.8504 -7.20556 4.44167 1.56268 0.25565
-0.001 0.95567 0.00023 183.47519 0 -2.71349 2.29225 1.99529 -3.30215 -26.41447 3.23851 2.86649 -21.79822 -71.35742 -80.77846 23.15557 73.71919 -15.81167 -1.04029 -9.41409 72.28447 65.16663 23.03521 -69.64004 -30.19451 1.40264 -3.84666 0.23796 5.60526 -6.49021 -2.00263 -2.77342 -6.46508 -1.78722 6.07042 0.88257 -7.19611 4.39922 1.57484 0.27099
-0.00111 0.95567 0.00023 183.4615 0 -2.71514 2.29068 1.9935 -3.29922 -26.45915 3.23443 2.86477 -21.71756 -71.3425 -80.78691 23.15893 73.73451 -15.76375 -1.03161 -9.393 72.26534 65.15161 23.06085 -69.66203 -30.1831 1.40116 -3.85864 0.23914 5.63536 -6.47349 -2.00797 -2.77707 -6.48504 -1.8007 6.07253 0.90815 -7.1876 4.36652 1.58472 0.28463
-0.00122 0.95567 0.00024 183.44887 0 -2.71665 2.28891 1.99165 -3.29636 -26.506 3.22858 2.86216 -21.63253 -71.32276 -80.79884 23.16267 73.75221 -15.71101 -1.02136 -9.38235 72.24748 65.14534 23.09315 -69.68729 -30.17308 1.40012 -3.87286 0.23998 5.66477 -6.45285 -2.01471 -2.7806 -6.50625 -1.81468 6.07474 0.93837 -7.17763 4.32688 1.59513 0.29712
-0.00133 0.95567 0.00024 183.43378 0 -2.71858 2.28835 1.98988 -3.29295 -26.55087 3.22603 2.86148 -21.55274 -71.31345 -80.8042 23.16677 73.76793 -15.66792 -1.01384 -9.34949 72.22771 65.1232 23.11582 -69.71045 -30.16131 1.39728 -3.88332 0.24155 5.69433 -6.43881 -2.01902 -2.78436 -6.5238 -1.82796 6.07706 0.96197 -7.17038 4.29734 1.60552 0.3128
-0.00144 0.95566 0.00023 183.41063 0 -2.7217 2.29065 1.98864 -3.28784 -26.58951 3.23342 2.86658 -21.49036 -71.33446 -80.78993 23.171 73.77385 -15.65378 -1.0141 -9.25455 72.20162 65.05642 23.10638 -69.7211 -30.14418 1.38943 -3.88186 0.24522 5.72708 -6.44534 -2.0161 -2.78935 -6.5322 -1.8393 6.07935 0.96366 -7.17114 4.3006 1.6152 0.33821
-0.00155 0.95565 0.0002 183.38536 0 -2.72518 2.29399 1.98743 -3.28235 -26.62544 3.24411 2.87349 -21.43373 -71.3655 -80.76897 23.17542 73.77796 -15.64902 -1.01722 -9.13749 72.17352 64.97307 23.08692 -69.72957 -30.12508 1.38006 -3.87664 0.24958 5.75971 -6.45858 -2.01067 -2.79465 -6.53697 -1.84983 6.08169 0.95845 -7.17465 4.3145 1.62463 0.36631
-0.00167 0.95564 0.00018 183.36224 0 -2.72834 2.29666 1.98601 -3.27749 -26.66141 3.25297 2.87916 -21.37483 -71.39054 -80.75156 23.17962 73.78424 -15.6386 -1.01922 -9.03099 72.1465 64.89614 23.07301 -69.74077 -30.10645 1.37204 -3.87365 0.25352 5.79112 -6.46816 -2.00639 -2.79969 -6.54335 -1.8605 6.084 0.95694 -7.17676 4.32311 1.63384 0.3918
-0.00178 0.95562 0.00017 183.33415 0 -2.73218 2.30031 1.98538 -3.2707 -26.70286 3.26315 2.88656 -21.31409 -71.42171 -80.73231 23.18457 73.78502 -15.63401 -1.02039 -8.92188 72.11893 64.82409 23.05562 -69.7453 -30.08962 1.36114 -3.86865 0.25795 5.82775 -6.48004 -2.00213 -2.80519 -6.54985 -1.87217 6.0864 0.95349 -7.17942 4.33303 1.64458 0.42317
-0.00189 0.95561 0.00014 183.31579 0 -2.73469 2.30209 1.98312 -3.26778 -26.73203 3.2714 2.89083 -21.25859 -71.44251 -80.71503 23.1879 73.79689 -15.61956 -1.02398 -8.8135 72.09192 64.73803 23.04272 -69.76289 -30.06874 1.35588 -3.86682 0.26151 5.85358 -6.48887 -1.99721 -2.80983 -6.55519 -1.88155 6.0886 0.95225 -7.18164 4.34296 1.65204 0.44303
-0.00198 0.95559 0.00012 183.32623 0 -2.73334 2.29865 1.97633 -3.27633 -26.72855 3.27341 2.88578 -21.21748 -71.43185 -80.70681 23.18721 73.83806 -15.57522 -1.0336 -8.70773 72.06748 64.61531 23.04605 -69.81815 -30.0352 1.36696 -3.87523 0.26244 5.84908 -6.48714 -1.99111 -2.81199 -6.55883 -1.8846 6.0902 0.95897 -7.1818 4.35043 1.65025 0.42907
-0.00206 0.95558 9e-05 183.34631 0 -2.73067 2.29323 1.96788 -3.28868 -26.71271 3.2734 2.87759 -21.18127 -71.41049 -80.70046 23.18481 73.89063 -15.52075 -1.04554 -8.60434 72.04352 64.47946 23.05396 -69.8865 -29.99802 1.38374 -3.88686 0.26247 5.8338 -6.48224 -1.98442 -2.81328 -6.5613 -1.8854 6.09158 0.96805 -7.18144 4.35763 1.64519 0.40365
-0.00215 0.95556 6e-05 183.36109 0 -2.72867 2.28854 1.96021 -3.29881 -26.70202 3.27435 2.871 -21.14201 -71.39422 -80.69188 23.18283 73.93918 -15.47114 -1.05639 -8.50302 72.01905 64.35081 23.05871 -69.94789 -29.96379 1.39766 -3.89661 0.26294 5.82387 -6.47918 -1.97797 -2.815 -6.56395 -1.88734 6.09305 0.97589 -7.18145 4.36491 1.64175 0.38438
-0.00223 0.95555 4e-05 183.37965 0 -2.72638 2.28455 1.95245 -3.31092 -26.69294 3.27517 2.86369 -21.1064 -71.37719 -80.68871 23.18226 73.98315 -15.42062 -1.06752 -8.38766 71.99595 64.21606 23.06742 -70.01286 -29.92398 1.41256 -3.90794 0.2633 5.81217 -6.47471 -1.97158 -2.81661 -6.56803 -1.88873 6.09457 0.98422 -7.18105 4.37259 1.6377 0.36134
-0.00232 0.95553 1e-05 183.39269 0 -2.72438 2.27867 1.94447 -3.31992 -26.67793 3.27581 2.85716 -21.06428 -71.35926 -80.67503 23.17848 74.03893 -15.36966 -1.07856 -8.30233 71.96987 64.09149 23.06942 -70.07427 -29.89501 1.42692 -3.91684 0.26365 5.80142 -6.47227 -1.96494 -2.81819 -6.56879 -1.89077 6.09593 0.99215 -7.18129 4.37941 1.63419 0.34328
-0.00239 0.95553 -2e-05 183.3877 0 -2.72353 2.26752 1.93643 -3.31848 -26.64672 3.27571 2.85289 -21.00291 -71.33989 -80.62986 23.16509 74.12842 -15.31824 -1.08893 -8.30005 71.93758 63.99534 23.04925 -70.11609 -29.89621 1.43739 -3.91775 0.2643 5.79758 -6.4768 -1.9577 -2.82029 -6.56192 -1.89482 6.09696 0.99881 -7.18396 4.3823 1.63252 0.34289
-0.00246 0.95552 -6e-05 183.37692 0 -2.72303 2.25461 1.9282 -3.31394 -26.61051 3.27559 2.84959 -20.93483 -71.32021 -80.57447 23.14876 74.22873 -15.26703 -1.09911 -8.32788 71.90187 63.91059 23.02274 -70.15508 -29.90848 1.44729 -3.91622 0.26493 5.7948 -6.48334 -1.95024 -2.82232 -6.55162 -1.89965 6.09783 1.00497 -7.18722 4.38452 1.63157 0.34773
-0.00253 0.95551 -9e-05 183.36905 0 -2.72237 2.24283 1.91995 -3.31145 -26.57846 3.27593 2.84627 -20.86979 -71.30172 -80.52507 23.13456 74.32148 -15.21674 -1.10924 -8.34155 71.8663 63.82254 23.00082 -70.19967 -29.91622 1.45814 -3.91615 0.26547 5.79037 -6.48854 -1.94293 -2.8241 -6.54204 -1.90433 6.09873 1.01111 -7.18985 4.38816 1.63061 0.34941
-0.0026 0.9555 -0.00012 183.36029 0 -2.72166 2.22962 1.91208 -3.30646 -26.53798 3.27436 2.84115 -20.8048 -71.27855 -80.46994 23.11696 74.4256 -15.16164 -1.11996 -8.35729 71.8367 63.72583 22.97172 -70.22658 -29.92209 1.46637 -3.91469 0.26638 5.7903 -6.49543 -1.93539 -2.82701 -6.5357 -1.90808 6.09979 1.01834 -7.19391 4.38738 1.62829 0.35389
-0.00268 0.9555 -0.00015 183.35195 0 -2.72114 2.21898 1.9034 -3.30581 -26.51405 3.27672 2.83994 -20.73823 -71.26503 -80.42441 23.10575 74.50871 -15.11695 -1.12948 -8.37584 71.79389 63.65036 22.95617 -70.28936 -29.93404 1.47975 -3.91551 0.26655 5.7818 -6.49935 -1.92827 -2.82761 -6.52211 -1.91394 6.10048 1.0232 -7.19522 4.39528 1.62891 0.35407
-0.00279 0.95549 -0.00015 183.34561 0 -2.72105 2.21593 1.89256 -3.3186 -26.53709 3.29047 2.85008 -20.66731 -71.2795 -80.40702 23.11322 74.52876 -15.09918 -1.13484 -8.39499 71.71478 63.62828 22.97869 -70.45304 -29.96438 1.50822 -3.92325 0.26452 5.74761 -6.49435 -1.92234 -2.82147 -6.48691 -1.92594 6.10016 1.02112 -7.18813 4.43049 1.6384 0.33983
